<?xml version="1.0" encoding="utf-8"?>
<!-- Generator: Adobe Illustrator 21.1.0, SVG Export Plug-In . SVG Version: 6.00 Build 0)  -->
<svg version="1.1" id="Calque_1" xmlns="http://www.w3.org/2000/svg" xmlns:xlink="http://www.w3.org/1999/xlink" x="0px" y="0px"
	 viewBox="0 0 432 432" style="enable-background:new 0 0 432 432;" xml:space="preserve">
<style type="text/css">
	.st0{fill:#343434;}
	.st1{fill:#C1292E;}
	.st2{fill:#B4B4B4;}
	.st3{fill:#7AB2B2;}
	.st4{fill:#CFA6B3;}
	.st5{fill:#E2C981;}
	.st6{fill:#A8B239;}
	.st7{fill:#C9879A;}
	.st8{fill:#D0D389;}
	.st9{fill:#B4B85C;}
	.st10{fill:#E6AB3A;}
	.st11{fill:#E27EAF;}
	.st12{fill:#66B7D3;}
	.st13{fill:#AB4B3B;}
	.st14{fill:#EF9148;}
	.st15{fill:#9A9999;}
	.st16{fill:#CDCCCC;}
	.st17{fill:#6E95AA;}
	.st18{fill:#93A7AE;}
	.st19{fill:#B199A5;}
	.st20{fill:#2DABE3;}
	.st21{fill:#48AE4D;}
	.st22{fill:#BF8F8E;}
	.st23{fill:#9A777A;}
	.st24{fill:#AB96B8;}
	.st25{fill:#B08794;}
	.st26{fill:#1B1B1B;}
	.st27{fill:#998675;}
	.st28{fill:#544842;}
	.st29{fill:#F39122;}
	.st30{fill:#B4C4A6;}
	.st31{fill:#959F8B;}
	.st32{fill:#638A99;}
	.st33{fill:#C1B397;}
	.st34{fill:#A1BEC8;}
	.st35{fill:#73868C;}
	.st36{fill:#808181;}
	.st37{fill:#D3B46C;}
	.st38{fill:#A1A87C;}
	.st39{fill:#A39F35;}
	.st40{fill:#E5B746;}
	.st41{fill:#DAB17A;}
	.st42{fill:#D189AF;}
	.st43{fill:#854A67;}
	.st44{fill:#7FA4AC;}
	.st45{fill:#DCC5B2;}
	.st46{fill:#B9CECC;}
	.st47{fill:#A6A59C;}
	.st48{fill:#9EB695;}
	.st49{fill:#A9AA9F;}
	.st50{fill:#BC9B8A;}
	.st51{fill:#22293F;}
	.st52{fill:#B63A44;}
	.st53{fill:#F39B8E;}
	.st54{fill:#6D7D96;}
	.st55{fill:#435882;}
	.st56{fill:#B02025;}
	.st57{fill:#BC2325;}
	.st58{fill:#5F716E;}
	.st59{fill:#7B9B6B;}
	.st60{fill:#DE948B;}
	.st61{fill:#80B7C0;}
	.st62{fill:#E4858B;}
	.st63{fill:#D4B4A1;}
	.st64{fill:#932E4E;}
	.st65{fill:#020203;}
	.st66{fill:#C7B29A;}
	.st67{fill:#9B615A;}
	.st68{fill:#AAA674;}
	.st69{fill:#B7A08E;}
	.st70{fill:#746458;}
	.st71{fill:#A49E58;}
	.st72{fill:#AE675D;}
	.st73{fill:#C19D57;}
	.st74{fill:#D48E5E;}
	.st75{fill:#BB746F;}
	.st76{fill:#95A4AD;}
	.st77{fill:#EACF94;}
	.st78{fill:#9C6E76;}
	.st79{fill:#BD969E;}
	.st80{fill:#EDBF60;}
	.st81{fill:#CC969B;}
	.st82{fill:#9DAFA0;}
	.st83{fill:#6D7B83;}
	.st84{fill:#DDA3A9;}
</style>
<g>
	<g>
		<path class="st40" d="M185.2,338.3c6.7,0,13.3,0.7,19.8,1.7c12.3,1.9,24.4,5,36.4,8.1c7.1,1.8,14.1,3.7,21.3,5
			c2.8,0.5,5.5,0.8,8.3,1.2c2.1,0.3,4.1,0.5,6.2,0.7c6.6,0.6,13.2,0.5,19.8-0.4c6.6-0.8,12.9-2.7,18.8-5.7c0.2-0.1,0.5-0.2,0.7-0.3
			c1.6-0.7,3.2-0.2,3.8,1.2c0.7,1.4,0.1,2.9-1.6,3.7c-2.3,1.1-4.7,2.2-7.1,3.1c-4.9,1.9-10.1,2.9-15.3,3.5
			c-5.1,0.6-10.2,0.8-15.3,0.5c-8.8-0.4-17.6-1.7-26.2-3.7c-3-0.7-6-1.5-9-2.2c-8.4-2.1-16.9-4.3-25.3-6.3
			c-6.8-1.6-13.8-2.9-20.8-3.8c-7.5-1-15-1.3-22.5-0.7c-12.5,1-24.6,3.7-36.1,8.7c-1.4,0.6-2.7,1.3-4,2c-1.5,0.8-3,0.5-3.8-0.9
			c-0.8-1.2-0.4-2.8,1-3.7c0.6-0.4,1.3-0.8,2-1.1c5-2.5,10.2-4.3,15.5-5.9c7-2.1,14.2-3.4,21.6-4.2c1.3-0.1,2.7-0.3,4-0.4
			C180,338.5,182.6,338.4,185.2,338.3z"/>
		<path class="st40" d="M180.1,353.5c4.5-0.1,9,0.2,13.4,0.8c4,0.6,8,1.5,12,2.5c0.2,0.1,0.4,0.1,0.6,0.2c1.3,0.6,1.9,1.8,1.6,3.1
			c-0.3,1.3-1.6,2.2-3,2c-0.7-0.1-1.4-0.3-2.1-0.5c-8.9-2.4-17.9-3.3-27.1-2.6c-8.4,0.6-16.7,2.2-24.6,5.3c-1.8,0.7-3.5,1.5-5.2,2.2
			c-0.5,0.2-1,0.4-1.4,0.5c-1.2,0.2-2.3-0.4-2.8-1.5c-0.5-1.1-0.3-2.3,0.6-3.1c0.3-0.3,0.8-0.5,1.2-0.7c7.3-3.5,14.9-5.8,22.8-7
			C170.7,354,175.4,353.6,180.1,353.5z"/>
		<path class="st40" d="M283.3,345c-6.7,0.2-13.3-0.8-19.9-2.1c-4.2-0.9-8.3-2-12.2-3.6c-0.5-0.2-1-0.4-1.5-0.7
			c-1.2-0.7-1.6-2.1-1.1-3.3c0.5-1.2,1.9-1.9,3.3-1.5c0.2,0,0.4,0.1,0.5,0.2c5,2.2,10.3,3.4,15.7,4.3c6,1.1,12.1,1.6,18.2,1.2
			c4.6-0.3,9.2-0.7,13.6-1.8c1.5-0.4,2.9,0.4,3.3,1.8c0.5,1.4-0.3,2.9-1.8,3.4c-1.2,0.4-2.5,0.6-3.7,0.9
			C293,344.5,288.2,344.9,283.3,345z"/>
	</g>
	<g>
		<path class="st0" d="M115,269c2.1-3.7,6-5,9.8-3.4c1.6,0.7,2.9,1.8,3.4,3.5c0.6,1.9,1,3.8,1.4,5.7c0.9,5.2,1.4,10.4,1.6,15.7
			c0.3,5.6,0.5,11.2,0.2,16.9c0,0.3,0,0.6,0,1.1c1.1-0.5,2.1-0.9,3.1-1.3c-0.3-2.1-0.6-4.1-0.9-6c-0.7-6-0.5-11.9,1.7-17.6
			c1.1-3,2.6-5.8,4.6-8.3c3-3.9,7-6.2,11.9-6.7c5.8-0.6,10.1,1.9,13.2,6.7c2.1,3.2,2.4,6.8,1.9,10.5c-0.6,4-2.4,7.3-5.2,10.1
			c-3.5,3.5-7.4,6.4-11.7,8.9c-0.3,0.2-0.7,0.4-1.1,0.6c0.8,3.2,1.6,6.4,2.9,9.4c0.8,1.8,1.7,3.5,3,5.1c0.6,0.7,1.2,1.3,1.9,2
			c0.6,0.6,1.4,0.7,2.1,0.2c0.8-0.6,1.6-1.2,2.1-2c0.8-1.1,1.5-2.3,2.1-3.4c3.5-6.3,6.7-12.8,9.8-19.3c0.9-2,1.5-3.9,1.3-6.1
			c-0.1-2.3,0.1-4.7,0.3-7c0.1-1.5,0.6-2.9,1.3-4.1c1.4-2.6,4.4-4,7.2-3.4c1.7,0.4,2.9,1.4,3.7,3c0.7,1.7,0.9,3.5,1.1,5.3
			c0.1,1.3,0.2,2.6,0.3,3.9c0,0.4,0.1,0.7,0.3,1.1c0.1-0.3,0.2-0.7,0.3-1c1.2-3.8,2.9-7.5,5.5-10.6c2.6-3.2,5.9-5.2,10.1-5.7
			c5.6-0.6,11,2.2,13.7,7.2c1.2,2.3,1.9,4.7,2.4,7.2c0.8,4.1,0.7,8.2,0.8,12.3c0,4,0,8,0.1,11.9c0.2,4,0.5,8.1,1.3,12.1
			c0.4,1.7,1,3.4,1.5,5c0.1,0.4,0.3,0.8,0.6,1.4c0.2-0.6,0.4-1,0.5-1.3c1-3.1,1.6-6.2,2.1-9.4c1.1-6.6,2.2-13.2,3.2-19.9
			c0.2-1.3,0.2-2.6,0.2-3.9c0-4.9,0.4-9.8,1.6-14.5c0.2-0.8,0.5-1.5,0.9-2.2c1.6-3.3,5.2-5,8.8-4.1c2.4,0.6,3.9,2.2,3.9,4.7
			c0,1.8-0.2,3.6-0.3,5.3c-0.2,2.2-0.5,4.4-0.5,6.7c-0.3,7.2,1,14.2,3.6,20.9c0.5,1.3,1.3,2.5,2.1,3.7c0.4,0.6,1,1.1,1.7,1.7
			c0.7-0.7,1.4-1.2,1.8-1.9c1.1-1.8,2.3-3.6,3.2-5.5c1.8-4,3.4-8.1,5-12.1c0.2-0.5,0.2-1,0.3-1.5c0.1-3.7,0.4-7.4,1.2-11.1
			c0.5-2,1.2-3.9,2.4-5.6c1.6-2.1,3.6-3.4,6.2-3.5c0.9,0,1.8,0.1,2.7,0.5c1.2,0.6,2,1.5,2.2,2.8c0.2,1.3,0.2,2.5,0.1,3.8
			c-0.2,3.7-0.6,7.4-0.7,11.1c-0.2,5.5,0.2,11,1.3,16.4c0.5,2.3,1.2,4.5,2.3,6.6c0.5,0.9,1.1,1.7,1.7,2.5c0.3,0.4,0.8,0.7,1.2,1.1
			c0.9-0.4,1.4-1,1.8-1.7c0.8-1.5,1.6-2.9,2.3-4.4c1-2.2,1.5-4.4,1.2-6.8c-0.6-5.9-0.2-11.7,1.1-17.5c0.3-1.5,0.7-2.9,1.4-4.3
			c1.4-3,3.9-4.6,7.3-4.5c3,0.1,5.1,1.9,5.2,5c0.1,2-0.1,4.1-0.3,6.1c-0.4,4.8-0.8,9.5-0.3,14.3c0.5,4.3,0.8,8.7,2.2,12.8
			c0.4,1.1,0.9,2.2,1.4,3.2c0.1,0.3,0.4,0.6,0.7,0.9c1.4-1.2,2.4-2.6,3.4-4c2.1-3.2,3.5-6.7,4.7-10.3c1-3.2,1.8-6.5,2.7-9.8
			c0.3-1,0-1.6-0.6-2.4c-2.8-3.3-5.7-6.6-8.4-10.1c-3.8-4.8-7.2-9.8-9.8-15.4c-1.6-3.4-2.9-6.9-3.5-10.6c-0.6-3.6-0.5-7.2,1.2-10.6
			c2.3-4.5,5.9-7.3,11-8.1c2.3-0.3,4.4,0.2,6.5,1.1c4.1,1.9,7.1,4.9,9.3,8.8c1.8,3.2,2.7,6.7,3.4,10.2c1.1,5.5,1.3,11.1,0.7,16.7
			c-0.3,2.8-0.6,5.5-1,8.3c-0.1,0.6,0,1,0.4,1.5c2.5,2.8,5,5.6,7.5,8.5c0.5,0.5,0.9,1.1,1.4,1.8c0.3-0.4,0.6-0.6,0.8-1
			c1.6-2.1,3.6-3.8,5.8-5.3c1.6-1.1,3.4-1.8,5.4-2.1c5-0.7,8.9,1.6,10.6,6.3c0.6,1.8,1,3.7,0.8,5.6c-0.1,1.3-0.8,2.2-2,2.5
			c-0.8,0.2-1.7,0.3-2.5,0c-0.9-0.3-1.5-0.8-1.8-1.8c-0.2-0.8-0.4-1.6-0.5-2.5c-0.2-1.5-0.6-3-1.6-4.3c-1-1.4-1.9-1.7-3.5-0.8
			c-0.7,0.4-1.5,0.8-2.1,1.4c-2.2,1.9-4.1,4.1-5.7,6.6c0.2,0.3,0.5,0.7,0.7,1c3,4.1,6,8.4,8.2,13c2.4,5,4.3,10.2,5.1,15.7
			c0.8,5.3,0.5,10.5-1.7,15.5c-1.5,3.5-3.7,6.4-6.7,8.6c-2.8,2.1-6,3.3-9.6,3.2c-2.9,0-5.4-1.1-7.5-3.1c-3-2.9-4.6-6.5-5.5-10.5
			c-0.8-3.8-0.8-7.6-0.6-11.4c0.6-8.1,2.7-15.9,5.9-23.3c0.2-0.4,0.3-0.8,0-1.2c-1.6-2.2-3.2-4.3-4.8-6.5c0-0.1-0.1-0.1-0.3-0.2
			c-0.1,0.4-0.3,0.8-0.4,1.2c-1.3,4.1-2.7,8.1-4.6,11.9c-1.6,3.2-3.5,6.2-5.9,8.9c-1.5,1.6-3.3,2.9-5.4,3.5
			c-4.2,1.1-7.6-0.2-10.5-3.3c-2-2.1-3.4-4.6-4.6-7.2c-0.1-0.3-0.3-0.6-0.5-1.1c-0.3,0.4-0.5,0.7-0.6,1c-0.8,1.4-1.7,2.7-2.9,3.8
			c-2.8,2.5-6,3.3-9.7,2.2c-2.7-0.8-4.8-2.4-6.8-4.3c-3.8-3.7-6.1-8.3-7.3-13.5c0-0.2-0.1-0.4-0.2-0.8c-0.2,0.4-0.4,0.6-0.5,0.8
			c-0.7,1.7-1.3,3.4-2,5.1c-0.8,1.9-1.8,3.7-3.1,5.3c-3.4,4.1-8.2,5.4-13.2,3.4c-2.4-1-4.4-2.6-6.1-4.5c-1.6-1.8-2.9-3.8-3.9-5.9
			c-0.2-0.4-0.4-0.7-0.7-1.3c-0.1,0.5-0.2,0.8-0.2,1.1c-0.7,4.6-1.4,9.2-2.2,13.8c-0.4,2.3-1.1,4.6-2.2,6.7
			c-0.4,0.8-0.9,1.6-1.5,2.3c-2,2.4-5.2,3.1-8,1.9c-1.4-0.6-2.6-1.6-3.7-2.6c-2.7-2.6-4.7-5.8-6.2-9.2c-1.5-3.1-2.3-6.5-2.6-9.9
			c-0.2-2.7-0.4-5.5-0.5-8.2c-0.1-3,0-6-0.2-9c-0.2-3.6-0.6-7.2-1.5-10.7c-0.3-1.1-0.8-2.2-1.3-3.2c-0.3-0.6-0.8-1.2-1.4-1.7
			c-0.9-0.8-1.6-0.7-2.5,0.1c-1.3,1.4-2.3,3-3.2,4.7c-2,3.9-3.1,8-3.5,12.3c-0.3,2.7-0.4,5.5-0.3,8.2c0,3.9,1,7.7,1.9,11.5
			c0.4,1.7,0.8,3.3,1.1,5c0.1,0.7,0.1,1.5,0.1,2.2c-0.1,1.3-0.7,2.3-1.9,2.9c-2.7,1.4-6.5,1.5-9-1.6c-1.8-2.2-3.1-4.6-4.3-7.1
			c-2.4-4.9-4.3-9.9-5.3-15.2c0-0.2-0.1-0.3-0.2-0.7c-0.2,0.4-0.4,0.6-0.5,0.8c-1.4,3-2.7,6-4.1,9.1c-1.3,2.8-2.7,5.6-4.5,8.1
			c-2.4,3.3-5.6,5.5-9.7,6.2c-3.5,0.6-6.7-0.3-9.6-2.1c-3.3-2.1-5.9-4.9-7.9-8.2c-1.1-1.7-1.9-3.6-2.8-5.4c-0.2-0.3-0.3-0.7-0.5-1.1
			c-1.6,0.7-3.2,1.4-4.8,2c-0.1,1.7-0.3,3.4-0.4,5.1c-0.5,6.2-1.4,12.3-2.9,18.4c-1.3,5.3-3.1,10.3-6,14.9
			c-2.8,4.4-6.3,8.1-10.9,10.7c-3.1,1.8-6.4,2.9-10.1,3c-2.6,0-5-0.6-7.2-1.8c-6-3.5-10-8.5-11-15.5c-0.6-3.7,0-7.3,1.5-10.8
			c2-4.6,5.1-8.2,8.9-11.3c5.3-4.3,11.1-7.5,17.4-10c2-0.8,3.9-1.6,5.9-2.3c0.5-0.2,0.7-0.5,0.7-1c0.2-6.3,0.2-12.6-0.1-18.8
			c0-0.2,0-0.4-0.1-0.9c-0.3,0.5-0.5,0.8-0.6,1.1c-1.8,3.3-3.7,6.6-6.2,9.5c-1.1,1.3-2.3,2.5-3.6,3.5c-5.5,4.4-12.6,4.3-18-0.2
			c-2.9-2.4-5-5.4-6.5-8.8c-1.5-3.3-2.4-6.7-2.6-10.3c-0.4-5.6,0.2-11,2.6-16.1c1.9-4.2,4.8-7.5,9-9.4c4.5-2.1,9.2-2.2,13.9-0.6
			c3.6,1.2,6.6,3.3,9.2,5.9C114.4,268.5,114.7,268.7,115,269z M116.8,319.9c-2,0.8-3.7,1.6-5.3,2.3c-4.7,2.1-9.2,4.7-13.2,8
			c-3.3,2.7-6,5.9-7.6,10c-0.6,1.4-1,2.8-1.1,4.3c-0.2,4.2,1.2,7.7,4,10.7c1.5,1.5,3.1,2.7,5,3.6c2.2,1,4.2,0.8,6.1-0.5
			c1.3-0.9,2.4-2,3.3-3.3c0.8-1.3,1.5-2.6,2.1-3.9c1.5-3.3,2.4-6.7,3.3-10.2c1.4-5.2,2.3-10.4,2.8-15.7
			C116.5,323.5,116.6,321.8,116.8,319.9z M93.1,285.2c0.1,3,0.3,5.8,0.9,8.6c0.7,3.2,1.9,6.3,4,8.9c1.5,1.8,2.6,2,4.5,0.6
			c1.6-1.2,2.8-2.6,4-4.2c3.5-4.7,6.4-9.7,9.3-14.8c0.6-1.1,0.7-2.1,0-3.2c-1.1-1.8-2.2-3.7-3.4-5.5c-1.6-2.3-3.5-4.4-5.9-6
			c-1.2-0.8-2.5-1.4-3.9-1.6c-1.9-0.3-3.5,0.1-4.8,1.5c-0.7,0.8-1.4,1.8-1.9,2.8C94,276.4,93.2,280.8,93.1,285.2z M320.8,283
			c0-0.2,0.1-0.4,0.1-0.5c0.5-4.7,0.6-9.5,0.2-14.2c-0.4-3.6-1-7.2-2.2-10.6c-0.9-2.5-2-4.8-3.7-6.8c-1-1.2-2.2-2.2-3.7-2.9
			c-1-0.5-2-0.5-3,0.1c-2.4,1.3-4,3.2-4.4,5.9c-0.2,1.4-0.1,2.8,0.1,4.2c0.2,2,1.1,3.8,2,5.5c3.7,7.1,8.8,13.2,14.3,19
			C320.5,282.8,320.6,282.9,320.8,283z M333,319.5c-0.2,0.5-0.3,0.8-0.4,1.1c-1.4,4.4-2.3,9-2.8,13.6c-0.4,3.5-0.4,7,0.4,10.5
			c0.6,2.7,1.6,5.1,3.5,7.1c0.9,1,1.9,1.7,3.2,2.1c0.7,0.2,1.3,0.1,1.7-0.6c0.5-0.9,1-1.8,1.3-2.8c1.3-4.4,1.3-8.8,0.3-13.2
			c-1.3-6.1-3.7-11.7-6.8-17.1C333.4,320,333.2,319.8,333,319.5z M148,300.4c0.4-0.2,0.6-0.3,0.8-0.4c2-1.5,4.1-2.9,6-4.5
			c1.2-1,2.3-2.3,3.2-3.6c2.4-3.7,3.1-7.8,1.9-12.1c-0.5-1.9-1.6-3.4-3.2-4.5c-0.7-0.5-1.5-0.5-2.3-0.1c-1.1,0.6-2,1.5-2.6,2.6
			c-0.7,1.3-1.4,2.6-1.9,3.9c-1.7,4.8-2.4,9.7-2.2,14.7C147.7,297.7,147.9,299,148,300.4z"/>
		<path class="st0" d="M241.4,254.9c3.5,0,5.7,1.7,6.7,4.9c0.7,2.1,0.4,4.1-0.7,6c-0.1,0.2-0.3,0.5-0.5,0.7c-2.3,2.2-5,3.4-8.2,2.7
			c-1.3-0.3-2.4-1-3.2-2.1c-1.5-2-2-4.2-1.5-6.6c0.6-2.9,3.2-5.2,6.3-5.5C240.8,254.9,241.2,254.9,241.4,254.9z"/>
	</g>
	<g>
		<path class="st77" d="M105.5,228c-1.2-0.1-2.2-0.8-2.6-1.8c-0.4-1-0.2-2.2,0.6-3c0.4-0.3,0.8-0.6,1.3-0.8c3-1.5,6-2.9,8.9-4.4
			c3.7-1.9,7.4-3.9,11.1-5.8c0.6-0.3,1.1-0.6,1.7-0.9c1.6-0.7,3.1-0.2,3.8,1.1c0.7,1.4,0.2,2.9-1.2,3.7c-2.7,1.5-5.4,3.1-8.1,4.5
			c-2.4,1.2-4.8,2.3-7.2,3.5c-2.2,1.1-4.4,2.2-6.6,3.2C106.7,227.5,106.1,227.7,105.5,228z"/>
		<path class="st77" d="M296.5,211c0.5,0.1,1.1,0.2,1.6,0.4c7.1,2.8,14,6.1,20.9,9.4c1.4,0.7,2.1,1.9,1.9,3.1
			c-0.3,1.9-2.3,2.9-4.1,2c-2.3-1.1-4.6-2.2-6.9-3.3c-4.6-2.1-9.3-4.1-13.9-6.1c-0.3-0.1-0.6-0.2-0.9-0.4c-1.1-0.7-1.6-1.9-1.3-3.1
			C294.1,211.9,295.1,211.1,296.5,211z"/>
		<path class="st77" d="M147.9,232.8c0,0.7-0.3,1.4-0.8,1.9c-0.6,0.6-1.1,1.2-1.7,1.8c-3.7,3.9-7.3,7.7-11,11.6
			c-0.5,0.6-1,1.2-1.6,1.8c-0.7,0.8-1.7,1.2-2.7,1c-1.7-0.4-2.6-2.1-1.9-3.7c0.2-0.5,0.5-1,0.9-1.4c1-1.2,2-2.3,3.1-3.4
			c3.5-3.7,7-7.4,10.5-11c0.4-0.4,0.8-0.8,1.2-1.1C145.6,229.3,147.9,230.5,147.9,232.8z"/>
		<path class="st77" d="M297.4,108.1c-1.6,0-2.8-0.9-3-2.3c-0.2-1.4,0.5-2.6,1.9-3.1c0.9-0.3,1.8-0.4,2.7-0.6
			c5.3-1.4,10.5-3.1,15.5-5.3c0.4-0.2,0.7-0.3,1.1-0.4c1.5-0.5,2.9,0.1,3.5,1.4c0.6,1.3,0.1,2.8-1.2,3.6c-0.3,0.2-0.7,0.3-1,0.5
			c-4.9,2.2-10,4-15.3,5.3c-1.1,0.3-2.1,0.5-3.2,0.8C298,108,297.6,108,297.4,108.1z"/>
		<path class="st77" d="M125,110.2c0,1.6-1.4,2.9-3,2.7c-0.6,0-1.3-0.2-1.9-0.5c-4.1-1.6-8.2-3.2-12.3-4.8c-1.2-0.5-2.4-0.9-3.7-1.4
			c-1.2-0.5-2-1.4-1.9-2.8c0-1.7,1.6-2.9,3.2-2.6c0.5,0.1,1,0.3,1.5,0.5c4.6,1.8,9.3,3.6,13.9,5.4c0.8,0.3,1.6,0.5,2.4,0.8
			C124.3,108,125,109,125,110.2z"/>
		<path class="st77" d="M279.2,231.5c0.8,0,1.5,0.4,2.1,1.1c1.2,1.4,2.5,2.8,3.7,4.1c2.4,2.7,4.8,5.4,7.2,8.1
			c0.3,0.4,0.6,0.7,0.8,1.1c0.6,1.2,0.3,2.6-0.7,3.4c-1,0.8-2.5,0.8-3.5-0.1c-0.4-0.4-0.7-0.8-1.1-1.2c-3.4-3.8-6.8-7.5-10.2-11.3
			c-0.4-0.4-0.7-0.8-1-1.3C275.7,233.6,277,231.5,279.2,231.5z"/>
		<path class="st77" d="M128.1,75.8c1.2,0,2,0.6,2.6,1.5c1.5,2.4,3.1,4.7,4.6,7.1c1.3,2.1,2.5,4.2,3.8,6.3c0.2,0.3,0.3,0.6,0.5,1
			c0.4,1.2-0.1,2.4-1.1,3.1c-0.9,0.6-2.3,0.6-3.2-0.1c-0.4-0.3-0.8-0.8-1.1-1.2c-2.7-4.3-5.5-8.7-8.2-13c-0.3-0.5-0.6-1.2-0.6-1.8
			C125.3,77,126.6,75.8,128.1,75.8z"/>
		<path class="st77" d="M286.4,87.7c-2,0-3.3-2-2.6-3.8c0.2-0.4,0.5-0.8,0.8-1.2c2.8-3.3,5.7-6.7,8.5-10c0.3-0.3,0.5-0.6,0.9-0.8
			c1.3-1,2.9-0.8,3.9,0.3c1,1.1,0.9,2.8-0.2,4c-1,1-1.9,2-2.8,3c-2,2.4-4,4.7-6,7.1C288,87.3,287.4,87.7,286.4,87.7z"/>
	</g>
	<g>
		<path class="st40" d="M198.9,213.9c8.6,0.2,17.3,0.1,26.1,0.1c0.4-1.7,0.7-3.3,1.1-4.9c1.3-6.4,3.4-12.6,5.7-18.7
			c0.5-1.4,1-2.8,1.5-4.1c0.4-1.1,1.1-1.8,2.3-2c1.9-0.3,3.5,1.3,3.1,3.2c-0.2,1-0.5,1.9-0.9,2.8c-1.3,3.9-2.9,7.6-4,11.6
			c-1.4,4.9-2.5,10-3.5,15c-1.2,5.5-2.1,11-2.8,16.6c-0.3,2.8-0.6,5.6-0.8,8.4c-0.2,4.6-0.3,9.1-0.5,13.7c-0.1,3.1-0.1,6.3-0.2,9.4
			c0,0.4-0.1,0.8-0.2,1.2c-0.3,1.2-1.4,2-2.6,2c-1.2,0-2.3-0.7-2.7-1.9c-0.2-0.5-0.2-1-0.2-1.5c0.1-4.7,0.2-9.4,0.3-14.1
			c0.1-2.8,0.2-5.7,0.3-8.5c0.3-5.9,1-11.7,2-17.5c0.2-1.4,0.5-2.7,0.7-4.1c0-0.3,0-0.6,0.1-0.9c-7.8,0-15.6,0-23.4,0
			c0,0.2,0,0.4,0.1,0.6c1.9,7.6,3.3,15.2,4.3,23c0.7,5.5,1.3,11.1,2,16.6c0.2,1.4,0.4,2.9,0.5,4.3c0.2,1.8-0.8,3.2-2.5,3.4
			c-1.4,0.1-2.7-0.7-3-2.2c-0.3-1.4-0.5-2.8-0.6-4.2c-0.7-8.2-1.8-16.4-3.1-24.5c-1.7-10.4-4.1-20.6-7.8-30.4
			c-1.8-4.8-4.1-9.4-6.6-13.9c-0.2-0.3-0.4-0.7-0.5-1.1c-0.5-1.5,0.1-3,1.5-3.6c1.3-0.6,2.8-0.1,3.6,1.3c1.1,1.9,2.2,3.9,3.2,5.9
			c2.9,5.7,5.1,11.7,7,17.8c0.1,0.3,0.2,0.7,0.3,1C198.6,213.6,198.7,213.7,198.9,213.9z"/>
		<g>
			<path class="st40" d="M140.9,188c1.8,4.7,4,9.1,6.6,13.2c6.2,9.7,12.5,19.3,19.4,28.5c2.8,3.8,5.4,7.8,7.6,12
				c3.1,5.9,4.7,12.1,4.8,18.8c0,2.3-0.1,4.5-0.2,6.8c-0.1,1.7-1.2,2.8-2.7,2.9c-1.3,0-2.4-0.7-2.7-2c-0.2-0.6-0.2-1.2-0.2-1.8
				c0-1.6,0.1-3.2,0.1-4.8c0.1-6.2-1.4-12.1-4.3-17.5c-2.3-4.4-5.1-8.4-8-12.4c-6.5-8.8-12.5-18-18.4-27.2
				c-2.8-4.4-5.2-9.1-7.1-13.9c-0.1-0.3-0.3-0.7-0.5-1c-0.5,0.1-1,0.3-1.4,0.4c-11,3.2-21.5,7.5-31.8,12.5c-3.1,1.5-6.2,3.1-9.3,4.6
				c-2,1-4,2.1-6.3,2.5c-0.8,0.2-1.7,0.2-2.6,0.2c-2.1-0.2-3.8-2-4-4.3c-0.2-1.9,0.1-3.8,0.6-5.6c1.3-5.1,2.8-10.3,4.1-15.4
				c0.5-2,1-4.1,1.5-6.2c0.1-0.3,0.1-0.6,0.1-1c-1.3-0.3-2.5-0.7-3.8-1c-4.7-1.2-9.4-2.3-14.1-3.5c-2.4-0.6-4.8-1.4-7-2.6
				c-0.9-0.5-1.8-1.1-2.6-1.8c-1.9-1.7-2.3-4.2-1.2-6.4c0.5-1,1.2-2,2-2.8c2.6-2.9,5.6-5.3,8.7-7.7c6.8-5.3,14.1-9.7,21.7-13.7
				c13.1-6.9,26.8-12.3,41-16.5c1.4-0.4,2.1-1.1,2.7-2.3c4-8.9,9.5-16.8,16.1-24c5-5.4,10.4-10.4,16.6-14.4
				c11.3-7.2,23.5-12.2,36.8-14.4c5.6-0.9,11.3-1.3,17-1c13.2,0.7,25.7,4.1,37.2,10.6c13.1,7.4,22,18.4,27.3,32.3
				c1.2,3,2.2,6.1,2.9,9.3c0.1,0.3,0.2,0.6,0.3,0.9c1.8,0.6,3.5,1.1,5.3,1.7c9.2,3,18.1,6.8,26.7,11.1c11.5,5.7,23,11.5,34.2,18
				c4.1,2.4,8.1,5,12.1,7.7c2.5,1.7,4.6,3.9,6.5,6.3c1.3,1.7,2.1,3.7,2.2,5.8c0.1,1.6-0.4,3-1.8,3.9c-1.2,0.8-2.5,1.4-4,1.5
				c-4.2,0.2-8.5,0.5-12.6,1.3c-4.6,0.8-9.2,1.7-13.8,2.5c-0.3,0.1-0.6,0.1-0.9,0.2c0.3,0.8,0.5,1.6,0.7,2.4c2.2,7,4.4,14,6.5,21
				c0.5,1.7,1,3.5,1,5.4c0,0.5,0,1,0,1.5c-0.3,3.1-2.7,5-5.8,4.5c-1.4-0.3-2.7-0.7-4-1.3c-1.8-0.8-3.6-1.7-5.3-2.6
				c-8.9-4.6-17.9-9-27.4-12.4c-7.2-2.6-14.4-4.9-21.6-7.4c-0.3-0.1-0.5-0.1-0.9-0.2c-0.1,0.3-0.2,0.6-0.3,0.8
				c-3,9.5-7,18.5-12.1,27c-2.6,4.5-5.3,8.9-7.6,13.6c-2.8,5.8-5.1,11.7-6.5,18c-0.1,0.5-0.3,1.1-0.5,1.6c-0.4,0.8-1,1.4-1.9,1.4
				c-1,0-1.7-0.4-2.1-1.3c-0.2-0.5-0.4-1.2-0.4-1.8c-0.1-1.9,0.4-3.8,0.9-5.6c1.5-6.2,4-12,7-17.5c2.5-4.6,5.2-9,7.8-13.6
				c4.1-7.3,7.5-15,10-23c0.1-0.3,0.2-0.7,0.3-1.1c-2-0.5-3.9-1.1-5.9-1.6c-9.2-2.2-18.5-4.1-27.9-5.5c-7.7-1.1-15.4-1.8-23.2-2.3
				c-7-0.4-14-0.5-21-0.1c-4.7,0.3-9.4,0.7-14.1,1.2c-11.6,1.2-22.9,3.7-34.2,6.1c-3.9,0.8-7.7,1.8-11.6,2.7
				C141.5,187.8,141.3,187.9,140.9,188z M281.6,116.2c-0.1-0.5-0.2-0.8-0.3-1.2c-0.9-3.2-2.1-6.3-3.5-9.3c-3.3-7-7.5-13.3-13.4-18.4
				C259.5,83,254,79.6,248,77c-8.3-3.6-17.1-5.7-26.1-6.4c-6.8-0.5-13.5,0-20.1,1.3c-12.4,2.4-23.9,7.1-34.2,14.5
				c-11.4,8.1-20.4,18.6-27,31c-0.1,0.3-0.3,0.6-0.4,0.9c0.1,0,0.2,0.1,0.3,0.1c0.3-0.1,0.6-0.2,1-0.2c13.4-3.6,27-6.4,40.7-8.2
				c7.5-1,14.9-1.6,22.4-2.1c8.4-0.5,16.8-0.6,25.3-0.6c0.3,0,0.5,0,0.8,0c6.2,0.5,12.4,1.2,18.6,2.1c8,1.2,15.9,2.7,23.7,4.6
				C275.7,114.6,278.5,115.4,281.6,116.2z M167.8,154.7c0.4-0.3,0.8-0.6,1.1-0.9c5.2-4.3,7.2-9.9,5.7-16.4
				c-1.1-5.1-4.4-8.8-8.9-11.4c-3.2-1.8-6.5-2.2-10-1.4c-3,0.7-5.3,2.7-4.3,6.8c0.5,2.2,1.1,4.5,1.7,6.7c2.6,9.7,5.3,19.3,7.9,29
				c0.3,1.2,0.6,2.4,0.9,3.6c0.5,1.6,1.8,2.4,3.3,2.1c1.4-0.3,2.3-1.8,2-3.4c0-0.3-0.1-0.6-0.2-0.9c-0.4-1.5-0.8-3-1.1-4.4
				c-0.4-1.5-0.8-3-1.2-4.8c0.6,0.4,1,0.7,1.4,0.9c5,3.3,10.3,5.5,16.3,6.3c3.7,0.5,7.3,0.1,10.9-0.6c1.2-0.2,2.1-1.4,2.1-2.6
				c0-1.3-0.7-2.4-2-2.7c-0.6-0.2-1.3-0.1-1.9-0.1c-2,0.2-3.9,0.7-5.9,0.6C179.1,161,173.3,158.5,167.8,154.7z M208.8,154.3
				c4.1,0,8.1-0.4,12.2-0.2c0.2,0.9,0.4,1.7,0.6,2.5c0.6,2.3,1.1,4.7,1.7,7c0.2,0.8,0.6,1.6,1.1,2.2c0.7,0.9,1.7,1.2,2.9,0.9
				c1.1-0.3,1.8-1,1.9-2.2c0.1-0.6,0-1.2-0.1-1.7c-1.4-5.4-2.8-10.7-4.1-16.1c-1.7-6.5-3.2-13.1-5.3-19.5c-0.7-2.1-1.4-4.1-2.3-6.2
				c-0.4-0.9-1-1.7-1.7-2.4c-1.7-1.6-4.1-1.2-5.4,0.7c-0.3,0.4-0.5,0.9-0.7,1.4c-0.3,0.8-0.5,1.6-0.7,2.4c-0.7,3.5-1.4,6.9-2.1,10.4
				c-1,5.3-2,10.6-3,15.9c-0.9,4.5-1.2,9.1-2.6,13.5c-0.4,1.3,0.3,2.6,1.5,3.2c1.2,0.5,2.6,0.2,3.4-1c0.4-0.5,0.7-1.2,0.8-1.8
				c0.4-1.7,0.8-3.5,1.1-5.2C208.4,156.9,208.6,155.6,208.8,154.3z M148.2,162.7c0.2,0.4,0.4,0.7,0.6,1c1.5,2.7,2.9,5.4,4.4,8
				c0.2,0.4,0.5,0.9,0.9,1.2c0.8,0.8,2,1,3,0.6c1.1-0.5,1.7-1.4,1.6-2.6c-0.1-0.7-0.4-1.4-0.7-2c-2.1-3.9-4.2-7.8-6.3-11.7
				c-3.2-5.8-6.4-11.6-9.7-17.3c-1-1.8-2.2-3.5-3.5-5.2c-0.7-0.9-1.5-1.8-2.5-2.4c-2.3-1.6-5-0.5-5.8,2.2c-0.2,0.7-0.3,1.5-0.3,2.3
				c0.1,3.9,0.1,7.7,0.3,11.6c0.2,3.4,0.4,6.8,0.7,10.3c0.4,4.5,1,9.1,1.5,13.6c0.2,1.5,0.2,3,0.4,4.5c0.2,1.4,1.3,2.4,2.6,2.5
				c1.3,0.1,2.5-0.8,2.8-2c0.1-0.4,0.1-0.9,0.1-1.4c-0.2-2.6-0.5-5.2-0.8-7.8c-0.1-0.6-0.1-1.1-0.2-1.7
				C141,165,144.6,163.9,148.2,162.7z M242.1,166.9c1.1-0.2,2.1-0.4,3.2-0.8c5.1-1.6,8.9-7.9,9.1-12.9c0.2-3.3-0.7-6.4-2.3-9.2
				c-1.5-2.5-3.3-4.7-5.5-6.5c-1.7-1.4-3.5-2.7-5.2-4.2c-1.1-0.9-2.2-2-3.1-3c-0.8-0.9-1.1-2-1.1-3.2c0.1-2.4,1.6-4.3,3.9-4.6
				c1.4-0.2,2.8,0.2,4,0.9c0.9,0.6,1.4,1.4,1.6,2.5c0.4,1.6,1.8,2.4,3.3,2.1c1.4-0.3,2.3-1.7,2.1-3.2c-0.2-1.8-1-3.3-2.2-4.6
				c-1-1.1-2.2-1.9-3.6-2.4c-4.9-2-10.2-0.6-12.9,3.5c-2.4,3.6-2.4,8.2,0,11.9c1.2,1.8,2.7,3.2,4.3,4.5c1.3,1,2.7,2,4,3.1
				c2.4,1.9,4.5,4.2,5.9,6.9c2.3,4.4,1.1,8.8-2.2,12c-0.8,0.8-1.8,1.3-2.9,1.5c-0.7,0.1-1.3,0-1.7-0.6c-0.4-0.6-0.8-1.3-1.1-2
				c-0.3-0.7-0.5-1.4-0.8-2c-0.7-1.4-2.2-2-3.6-1.5c-1.4,0.5-2.1,2-1.5,3.5c0.4,1.2,0.8,2.4,1.4,3.5c0.6,1,1.3,2,2.1,2.8
				C238.6,166.1,240.2,166.8,242.1,166.9z M288.6,162.7c0,2.6,0.3,5.4,1.1,8.2c0.9,3.3,2.4,6.2,4.9,8.5c3.5,3.2,8.5,3.8,12.6,1.4
				c2.6-1.5,4.3-3.9,5.9-6.4c0.8-1.2,0.3-2.7-0.8-3.5c-1.1-0.8-2.6-0.7-3.6,0.3c-0.4,0.4-0.7,0.9-1.1,1.4c-0.8,0.9-1.5,1.9-2.4,2.7
				c-0.9,0.9-2.1,1.4-3.5,1.4c-1.4,0-2.5-0.6-3.5-1.5c-1.8-1.7-2.7-4-3.3-6.3c-0.8-3.3-0.8-6.6-0.5-9.9c0.4-3.8,1.3-7.6,2.9-11.1
				c1-2.3,2.3-4.4,4.1-6.1c0.8-0.8,1.7-1.4,2.7-1.7c1.6-0.5,3,0.1,3.8,1.5c0.1,0.2,0.2,0.5,0.3,0.7c0.4,1.2,0.5,2.3,0.4,3.6
				c0,0.6,0,1.3,0.1,1.8c0.3,1.2,1.5,1.9,2.7,1.8c1.3-0.1,2.4-1,2.6-2.5c0.5-3,0-5.9-1.5-8.5c-2-3.4-5.9-4.9-9.7-3.9
				c-2,0.6-3.7,1.7-5.2,3.1c-2.5,2.3-4.3,5.2-5.6,8.3C289.7,151.1,288.7,156.6,288.6,162.7z M128.7,172.3c-0.1-3.5-1.5-6.7-4.3-9.3
				c-2.1-1.9-4.5-3.2-7.2-4.1c-2.8-0.9-5.7-1.3-8.7-1.8c-1.6-0.2-3.2-0.4-4.7-1.1c-1.3-0.5-2.2-1.4-2.7-2.7c-0.8-2-0.1-3.9,1.8-5
				c2-1.1,3.9-0.9,5.8,0.4c0.4,0.3,0.8,0.7,1.3,1c1.1,0.8,2.6,0.6,3.5-0.3c0.9-0.9,1.1-2.4,0.3-3.5c-0.2-0.4-0.6-0.7-0.9-1
				c-2.1-1.9-4.5-2.9-7.3-2.9c-4.2,0-7.6,1.8-9.5,5.7c-2.3,4.7-0.2,10.5,4.6,13c1.2,0.6,2.6,1.1,4,1.4c2.6,0.5,5.3,0.8,8,1.4
				c2.7,0.5,5.3,1.5,7.5,3.3c1.2,1.1,2.1,2.3,2.5,3.9c0.7,2.6,0.2,4.9-1.8,6.7c-1.2,1.1-2.6,1.5-4.2,0.9c-0.9-0.3-1.8-0.8-2.6-1.3
				c-0.6-0.3-1.1-0.7-1.6-0.9c-1.3-0.5-2.7,0-3.4,1.2c-0.7,1.2-0.4,2.7,0.8,3.6c1.5,1.1,3,2,4.8,2.6c3.8,1.3,7.3,0.6,10.2-2.2
				C127.5,179,128.6,176,128.7,172.3z M264.6,128.3c0,0.3,0,0.5,0,0.7c-0.3,2.1-0.6,4.2-1,6.3c-0.7,4.1-1.4,8.3-2.1,12.4
				c-0.9,5.6-1.8,11.1-2.8,16.7c-0.3,1.5-0.5,3.1-0.7,4.6c-0.2,1.6,0.7,2.9,2.2,3.2c1.4,0.3,2.7-0.6,3.2-2c0.1-0.4,0.2-0.8,0.3-1.2
				c1-6.1,2-12.3,3-18.4c1-6,2-12.1,2.9-18.1c0.2-1,0.3-2.1,0.5-3.1c0.3,0,0.5,0,0.7,0.1c1.3,0.3,2.7,0.6,4,1.1
				c1.8,0.6,3.5-0.4,3.8-2.2c0.2-1.1-0.3-2.3-1.5-2.8c-1-0.5-2.1-0.9-3.2-1.1c-3.3-0.6-6.7-1.2-10-1.7c-1.4-0.2-2.9-0.4-4.3-0.5
				c-1.5-0.1-2.6,0.8-2.9,2.2c-0.2,1.4,0.4,2.6,1.8,3.1c0.5,0.2,1.1,0.3,1.7,0.4C261.8,127.9,263.2,128.1,264.6,128.3z M184,135
				c0-1.7,0.3-3.6,1.1-5.4c0.6-1.2,1.3-2.3,2.4-3c1.5-1,3-1.1,4.6-0.2c0.5,0.3,0.9,0.6,1.3,1c0.8,0.6,1.6,0.9,2.6,0.6
				c2.1-0.6,2.8-3.1,1.1-4.8c-1.8-1.8-4-2.8-6.5-3c-3.5-0.2-6.2,1.2-8.5,3.8c-1.4,1.6-2.4,3.5-3,5.6c-1,3.4-1,6.8-0.4,10.2
				c1.1,6.2,4.4,10.9,10.1,13.8c3.7,1.9,7.5,1.7,11.3,0c1.6-0.7,2.2-2.3,1.6-3.7c-0.6-1.4-2.1-2-3.7-1.5c-0.5,0.2-1,0.4-1.5,0.5
				c-1.9,0.6-3.7,0.4-5.4-0.5c-3-1.6-5.1-4-6.2-7.2C184.3,139.2,184,137.3,184,135z M289.9,130.3c-0.1-1.3-0.9-2.5-2.2-2.7
				c-1.3-0.3-2.6,0.3-3.2,1.6c-0.2,0.3-0.3,0.7-0.4,1c-0.6,2.2-1.2,4.3-1.8,6.5c-3.2,11.6-5.7,23.3-8.4,35c-0.1,0.4-0.1,0.8-0.1,1.2
				c0.1,1.5,1.5,2.7,3.1,2.5c1.3-0.2,2-0.9,2.4-2.1c0.3-1.2,0.6-2.4,0.9-3.6c2.8-12.7,5.8-25.4,9.4-37.9
				C289.7,131.2,289.8,130.7,289.9,130.3z"/>
			<path class="st40" d="M162.5,151.3c-1.9-7.1-3.8-14.1-5.8-21.1c1.5-0.5,2.8-0.4,4.1-0.2c1.4,0.3,2.6,1,3.7,1.8
				c2.6,2,4.4,4.5,4.9,7.8c0.4,3.1-0.5,5.9-2.5,8.3C165.8,149.4,164.2,150.3,162.5,151.3z"/>
			<path class="st40" d="M214,127.5c2.3,7,3.9,13.8,5.7,20.9c-3.3,0.1-6.5,0.2-9.7,0.2C209.9,147.8,213.4,128.9,214,127.5z"/>
			<path class="st40" d="M135.6,140.4c3.7,5.5,6.8,11.3,10,17.2c-3,1-5.8,1.9-8.8,2.8C136,153.7,135.7,147.1,135.6,140.4z"/>
		</g>
	</g>
</g>
</svg>
