<?xml version="1.0" encoding="utf-8"?>
<svg version="1.1" id="Layer_1" xmlns="http://www.w3.org/2000/svg" xmlns:xlink="http://www.w3.org/1999/xlink" x="0px" y="0px"
	 viewBox="0 0 1743.103 1675.532" enable-background="new 0 0 1743.103 1675.532" xml:space="preserve">
<g>
	<path fill="#FED42B" d="M1284.099,1047.399c-0.099,1.448-0.184,2.913-0.242,4.399c196.581,351.495,242.882,810.418-203.655,448.153
		c-115.108-94.235-168.924-150.371-210.273-152.964c-12.208,9.902-105.943,113.164-232.842,201.574
		c-137.313,96.791-296.812,142.113-327.825-7.397c-31.928-154.835,117.896-446.787,122.771-453.068
		c26.556-55.199,59.242-52.488-60.638-134.335C217.46,849.445-14.464,721.027,50.501,611.394
		c67.065-119.038,423.352-71.979,561.943-50.462c129.783-755.132,418.319-633.398,510.571-13.356
		c0.611,6.083,1.562,12.113,2.834,18.102c45.582,37.43,289.46-22.166,476.625,13.892l1.058,1.215
		C1761.917,604.231,1783.739,807.62,1284.099,1047.399z"/>
	<path fill="#FFFFFF" d="M804.926,720.217c-14.489-0.14-24.987-23.139-17.098-43.777c6.848-16.57,22.502-17.657,30.593-5.684
		C832.351,691.224,821.123,721.351,804.926,720.217z"/>
	<path fill="#333333" d="M791.742,639.714c38.87-13.076,63.22,113.395,27.331,159.983
		C773.852,858.847,732.855,661.656,791.742,639.714z M787.829,676.44c-7.889,20.638,2.609,43.637,17.098,43.777
		c16.197,1.134,27.425-28.993,13.495-49.461C810.33,658.784,794.677,659.871,787.829,676.44z"/>
	<path fill="#333333" d="M713.479,962.972c61.172,93.022,142.906,83.986,207.861,83.731c65.62-1.945,136.496-35.243,169.505-105.757
		c-8.118-9.668-14.337-21.117-17.276-33.434c-1.318-3.305,2.177-4.69,4.237-6.291c0.897,0.67,2.74,1.996,3.638,2.65
		c6.342,25.265,25.978,46.757,51.07,54.215c14.086,4.464,10.271,1.043,11.943,9.389c-1.019,0.444-3.072,1.33-4.106,1.773
		c-14.791-2.604-28.418-9.563-40.186-18.725c-132.783,213.5-304.782,157.891-397.571,18.886
		c-15.041,6.511-47.519,17.493-44.563,1.337c31.757-2.374,57.925-11.964,73.602-45.392c2.287,0.277,4.602,0.602,6.896,1.035
		C737.034,941.968,723.349,952.221,713.479,962.972z"/>
	<path fill="#333333" d="M949.892,706.8c16.197-7.237,19.148-38.932,3.758-52.489c-7.501-7.112-19.831-4.612-25.794,7.734
		C916.52,685.121,932.717,714.472,949.892,706.8z M930.9,627.352c39.429-13.806,63.328,117.324,25.996,161.504
		C911.659,844.11,873.286,648.006,930.9,627.352z"/>
	<path fill="#FFFFFF" d="M953.65,654.311c15.39,13.557,12.439,45.252-3.758,52.489c-17.175,7.671-33.372-21.679-22.036-44.755
		C933.819,649.699,946.149,647.199,953.65,654.311z"/>
	<circle fill="#FEC066" cx="1185.984" cy="849.809" r="83.858"/>
	<circle fill="#FEC066" cx="619.165" cy="846.703" r="83.858"/>
</g>
</svg>
